# Created by Kenney (www.kenney.nl)

mtllib ground_turret.mtl

g gear_slantEnforced

v -0.4 0 0.5
v -0.4 0 0.4
v -0.5 0 0.5
v -0.5 0 0.4
v -0.2 0.5 0.2
v -0.2 0.5 0.3
v -0.3 0.5 0.2
v -0.3 0.5 0.3
v -0.3312961 0.1717597 0.3562961
v -0.3312961 0.1717597 0.4062961
v -0.3512961 0.1217597 0.4262961
v -0.3512961 0.1217597 0.3762961
v 0.5 0 0.5
v 0.5 0 0.4
v 0.4 0 0.5
v 0.4 0 0.4
v 0.3 0.5 0.2
v 0.3 0.5 0.3
v 0.2 0.5 0.2
v 0.2 0.5 0.3
v 0.5 0 -0.4
v 0.5 0 -0.5
v 0.4 0 -0.4
v 0.4 0 -0.5
v -0.5 0 -0.5
v -0.3 0.5 -0.3
v -0.5 0 -0.4
v -0.3 0.5 -0.2
v 0.3 0.5 -0.3
v 0.3 0.5 -0.2
v -0.4 0 -0.5
v -0.2 0.5 -0.3
v -0.4 0 -0.4
v 0.2 0.5 -0.3
v -0.2 0.5 -0.2
v 0.2 0.5 -0.2
v 0.3312961 0.1717597 0.3562961
v 0.3512961 0.1217597 0.3762961
v 0.3512961 0.1217597 0.4262961
v 0.3312961 0.1717597 0.4062961
v -0.4262961 0.1217597 0.3512961
v -0.4062961 0.1717597 0.3312961
v -0.3562961 0.1717597 0.3312961
v -0.3762961 0.1217597 0.3512961
v -0.3762961 0.1217597 -0.3512961
v -0.3562961 0.1717597 -0.3312961
v -0.4062961 0.1717597 -0.3312961
v -0.4262961 0.1217597 -0.3512961
v 0.3762961 0.1217597 0.3512961
v 0.4262961 0.1217597 0.3512961
v 0.3562961 0.1717597 0.3312961
v 0.4062961 0.1717597 0.3312961
v 0.4262961 0.1217597 -0.3512961
v 0.3762961 0.1217597 -0.3512961
v 0.4062961 0.1717597 -0.3312961
v 0.3562961 0.1717597 -0.3312961
v 0.3312961 0.1717597 -0.4062961
v 0.3312961 0.1717597 -0.3562961
v -0.3312961 0.1717597 -0.4062961
v -0.3312961 0.1717597 -0.3562961
v -0.3512961 0.1217597 -0.4262961
v 0.3512961 0.1217597 -0.4262961
v 0.3512961 0.1217597 -0.3762961
v -0.3512961 0.1217597 -0.3762961

vn 0 -1 0
vn 0 1 0
vn -0.9284768 0.3713907 0
vn 0 0.3713907 0.9284768
vn 0.9284768 -0.3713907 0
vn 0.9284768 0.3713907 0
vn 0 0.3713907 -0.9284768
vn -0.9284768 -0.3713907 0
vn 0 -0.3713907 -0.9284768
vn 0 -0.3713907 0.9284768

vt 0.0625 0.0625

usemtl ground_turret

f 3/1/1 2/1/1 1/1/1
f 2/1/1 3/1/1 4/1/1
f 7/1/2 6/1/2 5/1/2
f 6/1/2 7/1/2 8/1/2
f 4/1/3 8/1/3 7/1/3
f 8/1/3 4/1/3 3/1/3
f 6/1/4 3/1/4 1/1/4
f 3/1/4 6/1/4 8/1/4
f 6/1/5 10/1/5 9/1/5
f 10/1/5 6/1/5 1/1/5
f 10/1/5 1/1/5 11/1/5
f 9/1/5 5/1/5 6/1/5
f 5/1/5 9/1/5 2/1/5
f 2/1/5 11/1/5 1/1/5
f 2/1/5 9/1/5 12/1/5
f 2/1/5 12/1/5 11/1/5
f 15/1/1 14/1/1 13/1/1
f 14/1/1 15/1/1 16/1/1
f 18/1/6 14/1/6 17/1/6
f 14/1/6 18/1/6 13/1/6
f 19/1/2 18/1/2 17/1/2
f 18/1/2 19/1/2 20/1/2
f 18/1/4 15/1/4 13/1/4
f 15/1/4 18/1/4 20/1/4
f 23/1/1 22/1/1 21/1/1
f 22/1/1 23/1/1 24/1/1
f 27/1/3 26/1/3 25/1/3
f 26/1/3 27/1/3 28/1/3
f 29/1/6 21/1/6 22/1/6
f 21/1/6 29/1/6 30/1/6
f 26/1/7 31/1/7 25/1/7
f 31/1/7 26/1/7 32/1/7
f 27/1/1 31/1/1 33/1/1
f 31/1/1 27/1/1 25/1/1
f 34/1/7 22/1/7 24/1/7
f 22/1/7 34/1/7 29/1/7
f 26/1/2 35/1/2 32/1/2
f 35/1/2 26/1/2 28/1/2
f 34/1/2 30/1/2 29/1/2
f 30/1/2 34/1/2 36/1/2
f 19/1/8 37/1/8 20/1/8
f 37/1/8 19/1/8 16/1/8
f 37/1/8 16/1/8 38/1/8
f 38/1/8 16/1/8 39/1/8
f 39/1/8 16/1/8 15/1/8
f 20/1/8 40/1/8 15/1/8
f 40/1/8 20/1/8 37/1/8
f 15/1/8 40/1/8 39/1/8
f 40/1/4 11/1/4 39/1/4
f 11/1/4 40/1/4 10/1/4
f 11/1/1 38/1/1 39/1/1
f 38/1/1 11/1/1 12/1/1
f 9/1/2 40/1/2 37/1/2
f 40/1/2 9/1/2 10/1/2
f 9/1/9 38/1/9 12/1/9
f 38/1/9 9/1/9 37/1/9
f 4/1/9 41/1/9 2/1/9
f 41/1/9 4/1/9 7/1/9
f 41/1/9 7/1/9 42/1/9
f 42/1/9 7/1/9 43/1/9
f 44/1/9 2/1/9 41/1/9
f 2/1/9 44/1/9 5/1/9
f 5/1/9 44/1/9 43/1/9
f 5/1/9 43/1/9 7/1/9
f 46/1/5 44/1/5 45/1/5
f 44/1/5 46/1/5 43/1/5
f 46/1/2 42/1/2 43/1/2
f 42/1/2 46/1/2 47/1/2
f 41/1/3 47/1/3 48/1/3
f 47/1/3 41/1/3 42/1/3
f 33/1/10 45/1/10 27/1/10
f 45/1/10 33/1/10 35/1/10
f 27/1/10 45/1/10 48/1/10
f 45/1/10 35/1/10 46/1/10
f 46/1/10 35/1/10 47/1/10
f 48/1/10 28/1/10 27/1/10
f 28/1/10 48/1/10 47/1/10
f 28/1/10 47/1/10 35/1/10
f 41/1/1 45/1/1 44/1/1
f 45/1/1 41/1/1 48/1/1
f 16/1/9 49/1/9 14/1/9
f 49/1/9 16/1/9 19/1/9
f 14/1/9 49/1/9 50/1/9
f 49/1/9 19/1/9 51/1/9
f 51/1/9 19/1/9 52/1/9
f 50/1/9 17/1/9 14/1/9
f 17/1/9 50/1/9 52/1/9
f 17/1/9 52/1/9 19/1/9
f 50/1/1 54/1/1 53/1/1
f 54/1/1 50/1/1 49/1/1
f 21/1/10 53/1/10 23/1/10
f 53/1/10 21/1/10 30/1/10
f 53/1/10 30/1/10 55/1/10
f 55/1/10 30/1/10 56/1/10
f 54/1/10 23/1/10 53/1/10
f 23/1/10 54/1/10 36/1/10
f 36/1/10 54/1/10 56/1/10
f 36/1/10 56/1/10 30/1/10
f 49/1/8 56/1/8 54/1/8
f 56/1/8 49/1/8 51/1/8
f 55/1/6 50/1/6 53/1/6
f 50/1/6 55/1/6 52/1/6
f 56/1/2 52/1/2 55/1/2
f 52/1/2 56/1/2 51/1/2
f 59/1/2 58/1/2 57/1/2
f 58/1/2 59/1/2 60/1/2
f 59/1/7 62/1/7 61/1/7
f 62/1/7 59/1/7 57/1/7
f 23/1/8 62/1/8 24/1/8
f 62/1/8 23/1/8 63/1/8
f 63/1/8 23/1/8 36/1/8
f 63/1/8 36/1/8 58/1/8
f 58/1/8 36/1/8 34/1/8
f 62/1/8 34/1/8 24/1/8
f 34/1/8 62/1/8 57/1/8
f 34/1/8 57/1/8 58/1/8
f 32/1/5 61/1/5 31/1/5
f 61/1/5 32/1/5 59/1/5
f 59/1/5 32/1/5 60/1/5
f 61/1/5 33/1/5 31/1/5
f 33/1/5 61/1/5 64/1/5
f 33/1/5 64/1/5 35/1/5
f 35/1/5 64/1/5 60/1/5
f 35/1/5 60/1/5 32/1/5
f 63/1/1 61/1/1 62/1/1
f 61/1/1 63/1/1 64/1/1
f 58/1/10 64/1/10 63/1/10
f 64/1/10 58/1/10 60/1/10

g engine_low

v -0.15 0.5 0.5
v -0.15 0.5 0.3
v -0.3 0.5 0.5
v -0.3 0.5 -0.1
v 0.15 0.5 0.3
v 0.3 0.5 -0.1
v 0.15 0.5 0.5
v 0.3 0.5 0.5
v -0.5 0.6 -0.1
v -0.5 0.9 -0.1
v -0.5 0.6 0.5
v -0.5 0.9 0.5
v -0.3 1 -0.1
v -0.3 1 0.5
v -0.15 0.9 0.5
v -0.2763932 0.9 0.5
v -0.15 1 0.5
v -0.15 0.6 0.5
v -0.2763932 0.6 0.5
v -0.4 0.6618034 0.5
v -0.4 0.8381966 0.5
v 0.2763932 0.6 0.5
v 0.15 0.6 0.5
v 0.5 0.6 0.5
v 0.4 0.6618034 0.5
v 0.5 0.9 0.5
v 0.4 0.8381966 0.5
v 0.2763932 0.9 0.5
v 0.3 1 0.5
v 0.15 0.9 0.5
v 0.15 1 0.5
v 0.15 0.6 0.3
v -0.15 0.6 0.3
v 0.15 0.9 0.3
v -0.15 0.9 0.3
v 0.15 1 0.3
v -0.15 1 0.3
v 0.3 1 -0.1
v 0.5 0.9 -0.1
v 0.5 0.6 -0.1
v 0.3 1 -0.5
v -0.3 1 -0.5
v -0.3 0.5 -0.5
v 0.3 0.5 -0.5
v -0.5 0.6 -0.5
v 0.5 0.6 -0.5
v -0.5 0.9 -0.5
v 0.5 0.9 -0.5
v -0.2763932 0.6 0
v -0.4 0.6618034 0
v 0.2763932 0.6 0
v 0.4 0.6618034 0
v 0.4 0.8381966 0
v -0.4 0.8381966 0
v 0.2763932 0.9 0
v -0.2763932 0.9 0

vn -1 0 0
vn -0.4472136 0.8944272 0
vn -0.4472136 -0.8944272 0
vn 0 0 1
vn 1 0 0
vn 0.4472136 0.8944272 0
vn 0.4472136 -0.8944272 0
vn 0 0 -1

vt 0.5625 0.0625
vt 0.1875 0.0625

usemtl ground_turret

f 67/1/1 66/1/1 65/1/1
f 68/1/1 66/1/1 67/1/1
f 68/1/1 69/1/1 66/1/1
f 70/1/1 69/1/1 68/1/1
f 70/1/1 71/1/1 69/1/1
f 71/1/1 70/1/1 72/1/1
f 75/1/11 74/1/11 73/1/11
f 74/1/11 75/1/11 76/1/11
f 74/1/12 78/1/12 77/1/12
f 78/1/12 74/1/12 76/1/12
f 75/1/13 68/1/13 67/1/13
f 68/1/13 75/1/13 73/1/13
f 81/1/14 80/1/14 79/1/14
f 82/1/14 67/1/14 65/1/14
f 67/1/14 82/1/14 83/1/14
f 67/1/14 83/1/14 75/1/14
f 75/1/14 83/1/14 84/1/14
f 75/1/14 84/1/14 76/1/14
f 76/1/14 84/1/14 85/1/14
f 76/1/14 85/1/14 80/1/14
f 76/1/14 80/1/14 78/1/14
f 78/1/14 80/1/14 81/1/14
f 87/1/14 71/1/14 86/1/14
f 88/1/14 71/1/14 72/1/14
f 71/1/14 88/1/14 86/1/14
f 86/1/14 88/1/14 89/1/14
f 89/1/14 88/1/14 90/1/14
f 89/1/14 90/1/14 91/1/14
f 91/1/14 90/1/14 92/1/14
f 92/1/14 90/1/14 93/1/14
f 92/1/14 93/1/14 94/1/14
f 94/1/14 93/1/14 95/1/14
f 96/1/14 66/1/14 69/1/14
f 66/1/14 96/1/14 97/1/14
f 82/1/15 66/1/15 97/1/15
f 66/1/15 82/1/15 65/1/15
f 71/1/11 96/1/11 69/1/11
f 96/1/11 71/1/11 87/1/11
f 100/1/14 99/1/14 98/1/14
f 99/1/14 100/1/14 101/1/14
f 81/1/15 99/1/15 101/1/15
f 99/1/15 81/1/15 79/1/15
f 94/1/11 100/1/11 98/1/11
f 100/1/11 94/1/11 95/1/11
f 102/1/2 100/1/2 93/1/2
f 100/1/2 102/1/2 77/1/2
f 100/1/2 77/1/2 101/1/2
f 101/1/2 77/1/2 81/1/2
f 81/1/2 77/1/2 78/1/2
f 95/1/2 93/1/2 100/1/2
f 102/1/16 90/1/16 103/1/16
f 90/1/16 102/1/16 93/1/16
f 90/1/15 104/1/15 103/1/15
f 104/1/15 90/1/15 88/1/15
f 72/1/17 104/1/17 88/1/17
f 104/1/17 72/1/17 70/1/17

usemtl ground_turret

f 106/2/2 102/2/2 105/2/2
f 102/2/2 106/2/2 77/2/2
f 109/2/18 108/2/18 107/2/18
f 108/2/18 109/2/18 110/2/18
f 110/2/18 109/2/18 111/2/18
f 110/2/18 111/2/18 112/2/18
f 112/2/18 111/2/18 106/2/18
f 112/2/18 106/2/18 105/2/18
f 103/2/15 110/2/15 112/2/15
f 110/2/15 103/2/15 104/2/15
f 105/2/16 103/2/16 112/2/16
f 103/2/16 105/2/16 102/2/16
f 70/2/17 110/2/17 104/2/17
f 110/2/17 70/2/17 108/2/17
f 68/2/1 108/2/1 70/2/1
f 108/2/1 68/2/1 107/2/1
f 111/2/12 77/2/12 106/2/12
f 77/2/12 111/2/12 74/2/12
f 73/2/11 111/2/11 109/2/11
f 111/2/11 73/2/11 74/2/11
f 73/2/13 107/2/13 68/2/13
f 107/2/13 73/2/13 109/2/13

usemtl ground_turret

f 115/3/14 114/3/14 113/3/14
f 114/3/14 115/3/14 116/3/14
f 114/3/14 116/3/14 117/3/14
f 114/3/14 117/3/14 118/3/14
f 118/3/14 117/3/14 119/3/14
f 118/3/14 119/3/14 120/3/14
f 80/3/1 99/3/1 79/3/1
f 120/3/1 99/3/1 80/3/1
f 120/3/1 98/3/1 99/3/1
f 119/3/1 98/3/1 120/3/1
f 119/3/1 94/3/1 98/3/1
f 94/3/1 119/3/1 92/3/1
f 85/3/17 120/3/17 80/3/17
f 120/3/17 85/3/17 118/3/17
f 85/3/15 114/3/15 118/3/15
f 114/3/15 85/3/15 84/3/15
f 114/3/16 83/3/16 113/3/16
f 83/3/16 114/3/16 84/3/16
f 115/3/2 96/3/2 86/3/2
f 96/3/2 115/3/2 113/3/2
f 96/3/2 113/3/2 97/3/2
f 97/3/2 113/3/2 82/3/2
f 82/3/2 113/3/2 83/3/2
f 87/3/2 86/3/2 96/3/2
f 115/3/12 89/3/12 116/3/12
f 89/3/12 115/3/12 86/3/12
f 89/3/11 117/3/11 116/3/11
f 117/3/11 89/3/11 91/3/11
f 92/3/13 117/3/13 91/3/13
f 117/3/13 92/3/13 119/3/13

g chimney_medium

v 0.1366025 0.6711318 0.3033507
v 0.08660254 0.8000003 0.3033507
v 0.1366025 0.828868 0.3033507
v 0 0.9077362 0.3033507
v 0 0.8500007 0.3033507
v -0.1366025 0.828868 0.3033507
v -0.08660254 0.8000003 0.3033507
v -0.08660254 0.7499999 0.3033507
v -0.08660254 0.6999995 0.3033507
v 0.08660254 0.6999995 0.3033507
v 0 0.5922636 0.3033507
v 0 0.6499991 0.3033507
v -0.1366025 0.6711318 0.3033507
v -0.1366025 0.7499999 0.3033507
v -0.08660254 0.8000003 0.5208526
v -0.08660254 0.6999995 0.5208526
v -0.1366025 0.8288681 0.08584885
v -0.1366025 0.7499999 0.08584884
v -0.1366025 0.6711318 0.08584883
v 0.1366025 0.8288681 0.08584885
v 0.1366025 0.6711318 0.08584883
v 0 0.5922637 0.08584882
v 0.08364179 0.7982908 0.6650562
v 0.08364179 0.7982908 1.017409
v 0.08364179 0.7499999 0.6650562
v 0.08364179 0.7499998 1.017409
v 0.08364179 0.7017089 0.6650562
v 0.08364179 0.7017089 1.017409
v 2.021352E-14 0.8465818 0.6650563
v 2.021352E-14 0.8465818 1.017409
v -0.08364179 0.7982908 0.6650562
v -0.08364179 0.7982908 1.017409
v 2.021352E-14 0.6534179 0.6650562
v 2.021352E-14 0.6534179 1.017409
v 0 0.8500007 0.5208526
v 0.08660254 0.8000003 0.5208526
v 0 0.6499991 0.5208526
v -0.08364179 0.7017089 0.6650562
v 0 0.9077362 0.08584885
v -0.08364179 0.7017089 1.017409
v 2.598881E-14 0.5812486 0.6650562
v -0.1461418 0.6656242 0.6650562
v 0.1461418 0.6656242 0.6650562
v 0.08660254 0.6999995 0.5208526
v -0.1461418 0.8343755 0.6650562
v 2.598881E-14 0.9187512 0.6650562
v 0.1461418 0.8343755 0.6650562
v -0.1461418 0.8343755 1.017409
v 2.598881E-14 0.9187511 1.017409
v 0.1461418 0.6656242 1.017409
v 2.598881E-14 0.5812485 1.017409
v 0.1461418 0.8343755 1.017409
v 0.1461418 0.7499998 1.017409
v -0.1461418 0.6656242 1.017409

vn 0 -2.384186E-07 2.175019
vn -0.9186968 1.192093E-07 -0.8590536
vn -0.8660254 0.5000039 5.960464E-08
vn -0.8660254 -0.5000039 -5.960464E-08
vn 0.8660254 0.5000039 5.960464E-08
vn 0.8660254 -0.5000039 -5.960464E-08
vn 0 -1.000008 -1.192093E-07
vn 0 1.000008 1.192093E-07
vn 0.5 0.8660323 1.192093E-07
vn 0.4593483 0.795621 -0.8590534
vn -0.5 -0.8660323 -1.192093E-07
vn -0.4593483 -0.7956208 -0.8590536
vn -0.5 0.8660323 1.192093E-07
vn -0.4593483 0.795621 -0.8590534
vn -0.3720117 -0.644348 -1.453247
vn 0.3720117 -0.644348 -1.453247
vn 0.4593483 -0.7956208 -0.8590536
vn 0 2.384186E-07 -2.175019
vn 0.9186968 1.192093E-07 -0.8590536
vn -0.7440233 1.192093E-07 -1.453246
vn 0.5 -0.8660323 -1.192093E-07
vn -0.3720117 0.6443484 -1.453246
vn 0.3720117 0.6443484 -1.453246
vn 0.7440233 1.192093E-07 -1.453246

vt 0.3125 0.0625

usemtl ground_turret

f 123/3/19 122/3/19 121/3/19
f 122/3/19 123/3/19 124/3/19
f 122/3/19 124/3/19 125/3/19
f 125/3/19 124/3/19 126/3/19
f 125/3/19 126/3/19 127/3/19
f 127/3/19 126/3/19 128/3/19
f 128/3/19 126/3/19 129/3/19
f 130/3/19 121/3/19 122/3/19
f 121/3/19 130/3/19 131/3/19
f 131/3/19 130/3/19 132/3/19
f 131/3/19 132/3/19 129/3/19
f 131/3/19 129/3/19 133/3/19
f 133/3/19 129/3/19 126/3/19
f 133/3/19 126/3/19 134/3/19
f 128/3/11 135/3/20 127/3/11
f 135/3/20 128/3/11 136/3/20
f 136/3/20 128/3/11 129/3/11
f 138/3/11 126/3/21 137/3/21
f 126/3/21 138/3/11 134/3/11
f 139/3/22 134/3/11 138/3/11
f 134/3/11 139/3/22 133/3/22
f 121/3/24 140/3/23 123/3/23
f 140/3/23 121/3/24 141/3/24
f 131/3/25 139/3/22 142/3/25
f 139/3/22 131/3/25 133/3/22
f 145/3/11 144/3/22 143/3/22
f 144/3/22 145/3/11 146/3/11
f 147/3/21 146/3/11 145/3/11
f 146/3/11 147/3/21 148/3/21
f 144/3/22 149/3/25 143/3/22
f 149/3/25 144/3/22 150/3/25
f 150/3/25 151/3/24 149/3/25
f 151/3/24 150/3/25 152/3/24
f 154/3/26 147/3/21 153/3/26
f 147/3/21 154/3/26 148/3/21
f 155/3/28 122/3/27 125/3/27
f 122/3/27 155/3/28 156/3/28
f 157/3/30 129/3/29 132/3/29
f 129/3/29 157/3/30 136/3/30
f 121/3/24 142/3/25 141/3/24
f 142/3/25 121/3/24 131/3/25
f 149/3/19 145/3/19 143/3/19
f 145/3/19 149/3/19 147/3/19
f 147/3/19 149/3/19 153/3/19
f 153/3/19 149/3/19 151/3/19
f 153/3/19 151/3/19 158/3/19
f 135/3/32 125/3/31 127/3/31
f 125/3/31 135/3/32 155/3/32
f 126/3/21 159/3/26 137/3/21
f 159/3/26 126/3/21 124/3/26
f 160/3/23 151/3/24 152/3/24
f 151/3/24 160/3/23 158/3/23
f 162/3/33 157/3/30 161/3/33
f 157/3/30 162/3/33 136/3/30
f 161/3/34 164/3/35 163/3/34
f 164/3/35 161/3/34 157/3/35
f 142/3/36 140/3/36 141/3/36
f 140/3/36 142/3/36 159/3/36
f 159/3/36 142/3/36 139/3/36
f 159/3/36 139/3/36 137/3/36
f 137/3/36 139/3/36 138/3/36
f 160/3/23 153/3/26 158/3/23
f 153/3/26 160/3/23 154/3/26
f 164/3/37 122/3/15 156/3/37
f 122/3/15 164/3/37 130/3/15
f 124/3/26 140/3/23 159/3/26
f 140/3/23 124/3/26 123/3/23
f 135/3/20 162/3/38 165/3/38
f 162/3/38 135/3/20 136/3/20
f 164/3/35 132/3/39 130/3/39
f 132/3/39 164/3/35 157/3/35
f 155/3/32 165/3/40 166/3/40
f 165/3/40 155/3/32 135/3/32
f 156/3/28 166/3/41 167/3/41
f 166/3/41 156/3/28 155/3/28
f 163/3/42 156/3/37 167/3/42
f 156/3/37 163/3/42 164/3/37

usemtl ground_turret

f 168/4/31 166/4/31 165/4/31
f 166/4/31 168/4/31 169/4/31
f 170/4/39 161/4/39 163/4/39
f 161/4/39 170/4/39 171/4/39
f 169/4/19 173/4/19 172/4/19
f 173/4/19 169/4/19 144/4/19
f 173/4/19 144/4/19 170/4/19
f 144/4/19 169/4/19 150/4/19
f 150/4/19 169/4/19 168/4/19
f 150/4/19 168/4/19 152/4/19
f 152/4/19 168/4/19 160/4/19
f 148/4/19 170/4/19 144/4/19
f 170/4/19 148/4/19 171/4/19
f 148/4/19 144/4/19 146/4/19
f 171/4/19 148/4/19 154/4/19
f 171/4/19 154/4/19 174/4/19
f 174/4/19 154/4/19 160/4/19
f 174/4/19 160/4/19 168/4/19
f 162/4/11 168/4/11 165/4/11
f 168/4/11 162/4/11 174/4/11
f 171/4/29 162/4/29 161/4/29
f 162/4/29 171/4/29 174/4/29
f 169/4/27 167/4/27 166/4/27
f 167/4/27 169/4/27 172/4/27
f 173/4/15 167/4/15 172/4/15
f 167/4/15 173/4/15 163/4/15
f 163/4/15 173/4/15 170/4/15

